<svg width="291" height="210" viewBox="0 0 291 210" fill="none" xmlns="http://www.w3.org/2000/svg">
<path d="M48.283 195.276V204.672H47.443V203.94H44.983V204.672H44.143V195.276H48.283ZM44.983 203.1H47.443V196.116H44.983V203.1ZM40.135 194.16L41.011 194.232C40.879 195 40.747 195.72 40.615 196.38H43.111V196.884C42.991 198.852 42.535 200.544 41.731 201.972C42.451 202.524 43.051 203.016 43.519 203.448L42.931 204.144C42.475 203.7 41.923 203.22 41.275 202.704C40.615 203.652 39.787 204.468 38.791 205.152L38.215 204.444C39.199 203.808 39.991 203.052 40.615 202.176C39.991 201.696 39.307 201.18 38.563 200.652C38.935 199.596 39.259 198.456 39.547 197.22H38.143V196.38H39.727C39.871 195.66 40.015 194.916 40.135 194.16ZM41.059 201.468C41.755 200.232 42.163 198.816 42.295 197.22H40.435C40.147 198.492 39.835 199.56 39.523 200.4C40.075 200.772 40.591 201.132 41.059 201.468ZM59.515 199.632H51.979V203.172C51.979 203.7 52.255 203.976 52.807 203.976H58.831C59.119 203.976 59.359 203.904 59.539 203.76C59.779 203.544 59.935 202.776 60.007 201.456L60.847 201.72C60.727 203.208 60.523 204.096 60.235 204.408C59.971 204.66 59.575 204.792 59.071 204.816H52.567C51.595 204.816 51.115 204.312 51.115 203.328V197.028H51.979V198.804H58.639V195.672H50.635V194.832H59.515V199.632ZM72.475 195.372V197.952H71.587V196.212H63.391V197.94H62.503V195.372H67.063C66.895 194.964 66.715 194.604 66.511 194.268L67.471 194.1C67.663 194.484 67.843 194.904 68.011 195.372H72.475ZM62.215 198.708H65.575C65.935 198.048 66.283 197.4 66.607 196.752L67.495 197.016C67.183 197.616 66.883 198.18 66.595 198.708H72.799V199.548H70.435C69.943 200.82 69.379 201.816 68.743 202.56C69.979 203.088 71.239 203.712 72.511 204.432L71.935 205.188C70.663 204.444 69.391 203.772 68.119 203.196C66.775 204.396 64.999 205.02 62.767 205.092L62.263 204.288C64.303 204.276 65.971 203.784 67.243 202.812C66.115 202.332 64.999 201.912 63.883 201.552C64.315 200.88 64.723 200.208 65.107 199.548H62.215V198.708ZM66.127 199.548C65.767 200.172 65.431 200.724 65.119 201.204C66.031 201.468 66.955 201.804 67.903 202.2C68.551 201.492 69.079 200.604 69.487 199.548H66.127ZM77.143 194.208H78.019V199.608H77.143V197.892C76.387 198.324 75.511 198.732 74.503 199.104L74.167 198.324C75.307 197.964 76.303 197.532 77.143 197.052V194.208ZM78.751 195.564H81.307V194.172H82.183V195.564H84.703V196.344H82.183V198.12H84.367V198.9H79.123V198.12H81.307V196.344H78.751V195.564ZM74.827 194.712C75.511 195.036 76.135 195.432 76.711 195.9L76.267 196.584C75.643 196.068 75.019 195.672 74.371 195.384L74.827 194.712ZM74.179 200.28H79.315C79.147 199.968 78.955 199.668 78.739 199.392L79.531 199.128C79.771 199.464 79.999 199.848 80.203 200.28H84.811V201.072H80.335C80.695 201.684 81.127 202.224 81.643 202.692C82.327 202.272 82.915 201.792 83.395 201.264L84.007 201.804C83.503 202.32 82.927 202.776 82.255 203.184C83.011 203.736 83.899 204.156 84.919 204.468L84.427 205.224C82.159 204.444 80.527 203.064 79.519 201.072C79.015 201.624 78.367 202.128 77.575 202.596V204.228C78.523 204.036 79.399 203.796 80.215 203.532L80.359 204.3C79.315 204.612 78.055 204.9 76.579 205.188L76.399 204.444C76.651 204.348 76.783 204.204 76.783 204.012V203.004C76.111 203.316 75.379 203.616 74.563 203.88L74.119 203.148C76.159 202.608 77.647 201.912 78.607 201.072H74.179V200.28ZM90.823 194.964H96.979V195.792H94.831V204.012C94.831 204.732 94.459 205.092 93.727 205.092H92.011L91.831 204.264C92.383 204.3 92.923 204.324 93.427 204.324C93.775 204.324 93.955 204.144 93.955 203.796V195.792H90.823V194.964ZM87.607 194.196L88.447 194.364C88.327 194.784 88.207 195.18 88.087 195.564H90.403V196.368H87.799C87.463 197.196 87.091 197.94 86.659 198.612L85.951 198.168C86.719 196.968 87.271 195.648 87.607 194.196ZM87.235 197.976H90.187V198.756H88.903V200.232H90.619V201.024H88.903V203.844C89.491 203.628 90.079 203.352 90.655 203.016L90.799 203.784C90.007 204.216 89.083 204.576 88.027 204.864L87.667 204.12C87.919 204.048 88.051 203.928 88.051 203.76V201.024H86.347V200.232H88.051V198.756H87.235V197.976ZM102.823 194.964H108.979V195.792H106.831V204.012C106.831 204.732 106.459 205.092 105.727 205.092H104.011L103.831 204.264C104.383 204.3 104.923 204.324 105.427 204.324C105.775 204.324 105.955 204.144 105.955 203.796V195.792H102.823V194.964ZM99.607 194.196L100.447 194.364C100.327 194.784 100.207 195.18 100.087 195.564H102.403V196.368H99.799C99.463 197.196 99.091 197.94 98.659 198.612L97.951 198.168C98.719 196.968 99.271 195.648 99.607 194.196ZM99.235 197.976H102.187V198.756H100.903V200.232H102.619V201.024H100.903V203.844C101.491 203.628 102.079 203.352 102.655 203.016L102.799 203.784C102.007 204.216 101.083 204.576 100.027 204.864L99.667 204.12C99.919 204.048 100.051 203.928 100.051 203.76V201.024H98.347V200.232H100.051V198.756H99.235V197.976ZM110.491 201.408H115.087V200.592H115.927V201.408H120.487V202.176H116.659C117.571 203.004 118.963 203.652 120.835 204.132L120.451 204.936C118.351 204.264 116.839 203.376 115.927 202.296V205.2H115.087V202.344C114.235 203.34 112.747 204.204 110.611 204.936L110.131 204.156C112.207 203.58 113.635 202.92 114.403 202.176H110.491V201.408ZM114.835 194.16H115.663V194.832H120.091V195.576H115.663V196.356H119.299V200.244H111.727V196.356H114.835V194.16ZM118.483 199.512V198.648H112.543V199.512H118.483ZM112.543 197.94H118.483V197.088H112.543V197.94ZM122.155 194.676H132.835V195.516H128.023C127.927 196.044 127.771 196.56 127.579 197.052H132.187V205.236H131.359V204.636H123.667V205.236H122.839V197.052H126.703C126.895 196.548 127.051 196.044 127.147 195.516H122.155V194.676ZM123.667 203.844H125.323V197.832H123.667V203.844ZM126.127 203.844H128.863V202.308H126.127V203.844ZM129.667 203.844H131.359V197.832H129.667V203.844ZM126.127 201.552H128.863V200.088H126.127V201.552ZM126.127 199.32H128.863V197.832H126.127V199.32ZM143.023 201.48V205.236H142.183V204.72H137.023V205.236H136.183V201.48H143.023ZM137.023 203.94H142.183V202.26H137.023V203.94ZM137.983 196.128L138.823 196.308C138.643 196.584 138.463 196.848 138.271 197.1H142.699V197.796C142.207 198.48 141.499 199.08 140.575 199.608C141.883 200.124 143.347 200.436 144.967 200.556L144.775 201.336C142.855 201.192 141.163 200.772 139.675 200.052C138.259 200.7 136.471 201.204 134.311 201.576L133.987 200.808C135.919 200.496 137.527 200.1 138.799 199.596C138.187 199.236 137.623 198.828 137.107 198.372C136.639 198.792 136.135 199.164 135.607 199.5L135.055 198.828C136.243 198.144 137.215 197.244 137.983 196.128ZM139.687 199.212C140.515 198.804 141.175 198.336 141.667 197.832H137.647L137.611 197.868C138.247 198.396 138.943 198.84 139.687 199.212ZM144.367 195.096V197.364H143.491V195.876H135.499V197.364H134.623V195.096H139.015C138.871 194.784 138.727 194.508 138.571 194.256L139.519 194.112C139.663 194.4 139.795 194.736 139.939 195.096H144.367ZM155.083 196.524H148.231V198.864H155.083V196.524ZM148.231 199.704C148.171 201.852 147.607 203.7 146.527 205.248L145.891 204.672C146.863 203.328 147.355 201.576 147.379 199.428V195.672H151.291C151.075 195.168 150.847 194.7 150.595 194.268L151.519 194.124C151.735 194.58 151.951 195.096 152.167 195.672H155.959V199.704H148.231ZM158.011 196.2H159.583C159.415 195.576 159.235 195 159.031 194.484L159.895 194.34C160.063 194.88 160.231 195.504 160.399 196.2H161.803V197.016H158.011V196.2ZM158.995 197.724C159.247 199.092 159.475 200.676 159.679 202.452L158.971 202.632C158.791 201.012 158.563 199.452 158.287 197.952L158.995 197.724ZM161.791 202.56V203.388C160.687 203.82 159.487 204.168 158.203 204.456L157.987 203.604C158.695 203.484 159.391 203.328 160.063 203.136C160.351 201.384 160.555 199.536 160.687 197.568L161.467 197.676C161.323 199.56 161.095 201.3 160.807 202.908C161.143 202.788 161.479 202.68 161.791 202.56ZM167.491 196.524V194.688H168.307V197.28H162.595V194.688H163.423V196.524H165.019V194.22H165.859V196.524H167.491ZM162.079 198.288H168.907V199.08H165.751C165.667 199.476 165.547 199.86 165.403 200.232H168.559V204.252C168.559 204.852 168.307 205.152 167.803 205.152H167.251L167.047 204.372L167.539 204.408C167.695 204.408 167.779 204.3 167.779 204.084V201H166.699V204.96H165.967V201H164.995V204.972H164.263V201H163.207V205.152H162.427V200.232H164.563C164.707 199.86 164.827 199.476 164.899 199.08H162.079V198.288ZM171.727 202.572C171.991 202.572 172.219 202.68 172.387 202.908C172.543 203.124 172.627 203.4 172.627 203.748C172.627 204.276 172.471 204.744 172.159 205.152C171.847 205.536 171.427 205.8 170.923 205.932V205.344C171.235 205.236 171.487 205.056 171.679 204.816C171.859 204.564 171.943 204.3 171.943 204.012C171.895 204.036 171.799 204.06 171.679 204.06C171.475 204.06 171.307 203.988 171.163 203.844C171.019 203.7 170.947 203.52 170.947 203.316C170.947 203.088 171.019 202.908 171.163 202.776C171.307 202.632 171.487 202.572 171.727 202.572ZM187.423 201.924H186.367V199.56C186.151 199.752 185.935 199.932 185.695 200.1L185.263 199.536C186.031 199.02 186.571 198.408 186.871 197.712H183.079V195.768H185.779V195.156H182.407V194.496H192.607V195.156H189.223V195.768H191.923V197.712H187.651C187.579 197.916 187.495 198.108 187.399 198.276H192.379V198.84H187.039C186.895 199.032 186.739 199.212 186.571 199.38H191.815V201.924H188.191C188.095 202.116 187.975 202.284 187.843 202.452H191.851V202.944C191.443 203.412 190.927 203.808 190.291 204.132C191.083 204.3 191.971 204.42 192.955 204.504L192.595 205.2C191.323 205.056 190.219 204.84 189.295 204.552C188.263 204.9 187.003 205.116 185.527 205.2L185.215 204.516C186.367 204.468 187.375 204.36 188.227 204.168C187.651 203.904 187.159 203.616 186.763 203.292C186.427 203.472 186.055 203.628 185.635 203.76L185.287 203.148C186.331 202.86 187.039 202.452 187.423 201.924ZM189.235 203.868C189.883 203.628 190.399 203.34 190.807 203.004H187.327C187.819 203.34 188.455 203.628 189.235 203.868ZM188.431 195.768V195.156H186.571V195.768H188.431ZM191.131 197.16V196.332H189.223V197.16H191.131ZM188.431 197.16V196.332H186.571V197.16H188.431ZM185.779 197.16V196.332H183.883V197.16H185.779ZM191.047 201.42V200.856H187.123V201.42H191.047ZM187.123 200.424H191.047V199.884H187.123V200.424ZM184.651 197.856L185.311 198.168C184.747 199.032 183.823 199.8 182.551 200.472L182.323 199.74C183.379 199.188 184.159 198.564 184.651 197.856ZM184.735 199.944L185.419 200.256C185.155 200.688 184.831 201.108 184.447 201.492V205.212H183.655V202.176C183.271 202.464 182.863 202.728 182.431 202.98L182.203 202.224C183.355 201.564 184.207 200.808 184.735 199.944ZM203.467 201.012V203.976H204.835V204.792H194.155V203.976H195.463V201.012H203.467ZM196.303 203.976H197.935V201.804H196.303V203.976ZM198.703 203.976H200.275V201.804H198.703V203.976ZM201.043 203.976H202.627V201.804H201.043V203.976ZM194.707 195.576H197.431C197.239 195.108 197.035 194.676 196.807 194.292L197.671 194.148C197.887 194.568 198.091 195.048 198.283 195.576H200.695C200.971 195.108 201.175 194.616 201.307 194.1L202.159 194.22C202.015 194.7 201.823 195.156 201.571 195.576H204.283V196.356H199.939V197.436H203.671V198.192H199.939V199.236H204.727V200.04H194.263V199.236H199.051V198.192H195.367V197.436H199.051V196.356H194.707V195.576ZM216.475 195.372V197.952H215.587V196.212H207.391V197.94H206.503V195.372H211.063C210.895 194.964 210.715 194.604 210.511 194.268L211.471 194.1C211.663 194.484 211.843 194.904 212.011 195.372H216.475ZM206.215 198.708H209.575C209.935 198.048 210.283 197.4 210.607 196.752L211.495 197.016C211.183 197.616 210.883 198.18 210.595 198.708H216.799V199.548H214.435C213.943 200.82 213.379 201.816 212.743 202.56C213.979 203.088 215.239 203.712 216.511 204.432L215.935 205.188C214.663 204.444 213.391 203.772 212.119 203.196C210.775 204.396 208.999 205.02 206.767 205.092L206.263 204.288C208.303 204.276 209.971 203.784 211.243 202.812C210.115 202.332 208.999 201.912 207.883 201.552C208.315 200.88 208.723 200.208 209.107 199.548H206.215V198.708ZM210.127 199.548C209.767 200.172 209.431 200.724 209.119 201.204C210.031 201.468 210.955 201.804 211.903 202.2C212.551 201.492 213.079 200.604 213.487 199.548H210.127ZM221.143 194.208H222.019V199.608H221.143V197.892C220.387 198.324 219.511 198.732 218.503 199.104L218.167 198.324C219.307 197.964 220.303 197.532 221.143 197.052V194.208ZM222.751 195.564H225.307V194.172H226.183V195.564H228.703V196.344H226.183V198.12H228.367V198.9H223.123V198.12H225.307V196.344H222.751V195.564ZM218.827 194.712C219.511 195.036 220.135 195.432 220.711 195.9L220.267 196.584C219.643 196.068 219.019 195.672 218.371 195.384L218.827 194.712ZM218.179 200.28H223.315C223.147 199.968 222.955 199.668 222.739 199.392L223.531 199.128C223.771 199.464 223.999 199.848 224.203 200.28H228.811V201.072H224.335C224.695 201.684 225.127 202.224 225.643 202.692C226.327 202.272 226.915 201.792 227.395 201.264L228.007 201.804C227.503 202.32 226.927 202.776 226.255 203.184C227.011 203.736 227.899 204.156 228.919 204.468L228.427 205.224C226.159 204.444 224.527 203.064 223.519 201.072C223.015 201.624 222.367 202.128 221.575 202.596V204.228C222.523 204.036 223.399 203.796 224.215 203.532L224.359 204.3C223.315 204.612 222.055 204.9 220.579 205.188L220.399 204.444C220.651 204.348 220.783 204.204 220.783 204.012V203.004C220.111 203.316 219.379 203.616 218.563 203.88L218.119 203.148C220.159 202.608 221.647 201.912 222.607 201.072H218.179V200.28ZM231.523 197.808V199.464H234.367V197.808H231.523ZM234.367 197.028V195.456H231.523V197.028H234.367ZM230.575 204.84L230.275 204.012C230.539 203.928 230.671 203.772 230.671 203.556V194.676H235.183V200.268H231.523V203.724C232.579 203.412 233.515 203.1 234.343 202.776C234.103 202.356 233.851 201.936 233.587 201.528L234.247 201.108C235.003 202.272 235.579 203.292 235.975 204.156L235.315 204.636C235.147 204.264 234.955 203.88 234.739 203.496C233.539 204 232.147 204.456 230.575 204.84ZM239.431 203.544H238.351L238.123 202.704L239.143 202.728C239.479 202.728 239.647 202.56 239.647 202.236V195.492H237.463V205.164H236.599V194.676H240.511V202.428C240.511 203.172 240.151 203.544 239.431 203.544ZM242.155 194.916H252.859V195.756H251.275V203.916C251.275 204.708 250.891 205.116 250.123 205.116H248.119L247.927 204.276C248.587 204.3 249.223 204.324 249.823 204.324C250.207 204.324 250.411 204.108 250.411 203.7V195.756H242.155V194.916ZM248.215 197.592V201.996H244.387V203.052H243.547V197.592H248.215ZM244.387 201.204H247.387V198.372H244.387V201.204Z" fill="#171A1D" fill-opacity="0.4"/>
<g filter="url(#filter0_d_4_54)">
<rect x="8.60498" y="48" width="273.79" height="50" rx="8" fill="white" shape-rendering="crispEdges"/>
<path d="M24.605 78.41H37.605V65.41H24.605V78.41ZM45.7431 66.892H46.6531V68.296H50.0071V66.879H50.9171V68.296H53.4651V69.141H50.9171V70.74H54.0111V71.65H50.7871C51.5931 72.599 52.8151 73.353 54.4661 73.899L54.0631 74.731C52.0611 73.951 50.6441 72.924 49.7991 71.65H47.0041C46.1461 72.898 44.7811 73.938 42.9091 74.757L42.4151 73.964C44.0271 73.353 45.2361 72.586 46.0421 71.65H42.8571V70.74H45.7431V69.141H43.3901V68.296H45.7431V66.892ZM46.6531 70.74H50.0071V69.141H46.6531V70.74ZM44.9111 74.627L45.7301 75.03C45.2751 76.161 44.7421 77.136 44.1181 77.955L43.3511 77.409C43.9491 76.629 44.4691 75.706 44.9111 74.627ZM51.8271 74.146C52.4901 75.251 53.0621 76.421 53.5561 77.669L52.7111 78.059C52.1911 76.681 51.6191 75.472 51.0081 74.419L51.8271 74.146ZM49.7601 74.497C50.2931 75.537 50.7611 76.642 51.1511 77.825L50.2931 78.202C49.8771 76.902 49.4351 75.758 48.9411 74.757L49.7601 74.497ZM47.0691 78.735H45.7691L45.5611 77.838C45.9771 77.877 46.3671 77.903 46.7441 77.903C47.0041 77.903 47.1471 77.708 47.1471 77.344V72.937H48.0961V77.591C48.0961 78.345 47.7451 78.735 47.0691 78.735ZM56.5981 69.31H60.9791V68.465H56.1821V67.698H60.9791V66.866H61.8891V67.698H66.6991V68.465H61.8891V69.31H66.2701V70.064H56.5981V69.31ZM58.6001 73.093H57.3651V70.753H65.5031V73.093H64.4111L63.8781 74.042H67.2321V74.822H55.6361V74.042H59.0161L58.6001 73.093ZM63.4231 73.093H59.5751L59.9911 74.042H62.9031L63.4231 73.093ZM64.6061 72.404V71.442H58.2621V72.404H64.6061ZM65.6981 75.576V78.8H64.8011V78.267H58.0801V78.8H57.1701V75.576H65.6981ZM58.0801 77.5H64.8011V76.343H58.0801V77.5ZM70.0921 71.585C69.6501 72.183 69.1821 72.742 68.6751 73.275L68.3761 72.287C69.7801 70.701 70.8071 68.868 71.4441 66.814L72.3151 67.23C71.9771 68.257 71.5481 69.232 71.0281 70.142V78.8H70.0921V71.585ZM78.4641 72.053C79.1271 73.587 79.6991 75.238 80.1931 77.006L79.3741 77.37C78.8541 75.472 78.2691 73.782 77.6321 72.326L78.4641 72.053ZM73.9921 69.375C73.5761 70.389 73.0951 71.299 72.5491 72.131L71.7431 71.637C72.7311 70.194 73.4461 68.595 73.8881 66.84L74.7721 67.022C74.6421 67.529 74.4861 68.01 74.3301 68.465H79.8681V69.076C79.6601 69.882 79.4001 70.675 79.0751 71.455L78.1781 71.195C78.4771 70.649 78.7241 70.051 78.9191 69.375H73.9921ZM75.6171 78.709H73.9141L73.7191 77.825C74.2651 77.864 74.7981 77.89 75.2921 77.89C75.6171 77.89 75.7861 77.721 75.7861 77.383V70.467H76.6961V77.617C76.6961 78.345 76.3321 78.709 75.6171 78.709ZM73.6671 72.157L74.5121 72.391C74.0441 74.198 73.4331 75.784 72.6791 77.149L71.8081 76.837C72.5101 75.615 73.1341 74.055 73.6671 72.157ZM83.3521 75.953C83.6381 75.953 83.8851 76.07 84.0671 76.317C84.2361 76.551 84.3271 76.85 84.3271 77.227C84.3271 77.799 84.1581 78.306 83.8201 78.748C83.4821 79.164 83.0271 79.45 82.4811 79.593V78.956C82.8191 78.839 83.0921 78.644 83.3001 78.384C83.4951 78.111 83.5861 77.825 83.5861 77.513C83.5341 77.539 83.4301 77.565 83.3001 77.565C83.0791 77.565 82.8971 77.487 82.7411 77.331C82.5851 77.175 82.5071 76.98 82.5071 76.759C82.5071 76.512 82.5851 76.317 82.7411 76.174C82.8971 76.018 83.0921 75.953 83.3521 75.953ZM104.789 72.768H96.6251V76.603C96.6251 77.175 96.9241 77.474 97.5221 77.474H104.048C104.36 77.474 104.62 77.396 104.815 77.24C105.075 77.006 105.244 76.174 105.322 74.744L106.232 75.03C106.102 76.642 105.881 77.604 105.569 77.942C105.283 78.215 104.854 78.358 104.308 78.384H97.2621C96.2091 78.384 95.6891 77.838 95.6891 76.772V69.947H96.6251V71.871H103.84V68.478H95.1691V67.568H104.789V72.768ZM107.714 67.88H110.756V66.814H111.718V67.88H115.15V66.814H116.112V67.88H119.154V68.725H116.112V69.674H115.15V68.725H111.718V69.674H110.756V68.725H107.714V67.88ZM111.367 69.986L112.147 70.467C111.679 71.065 111.224 71.572 110.756 71.988C111.393 73.067 111.718 74.393 111.718 75.966C111.718 77.11 111.549 77.903 111.211 78.345C110.964 78.605 110.6 78.735 110.119 78.735C109.599 78.735 109.196 78.722 108.884 78.709L108.624 77.851C109.027 77.89 109.456 77.916 109.898 77.916C110.223 77.916 110.457 77.799 110.587 77.591C110.743 77.318 110.821 76.759 110.834 75.901C110.834 75.485 110.808 75.095 110.756 74.731C110.054 75.446 109.209 76.044 108.247 76.538L107.74 75.771C108.936 75.225 109.885 74.549 110.574 73.769C110.444 73.314 110.288 72.911 110.08 72.547C109.521 72.95 108.845 73.353 108.052 73.743L107.558 72.963C108.312 72.651 108.988 72.274 109.586 71.806C109.196 71.338 108.715 70.935 108.169 70.623L108.858 70.038C109.404 70.376 109.872 70.779 110.249 71.247C110.639 70.87 111.016 70.454 111.367 69.986ZM112.355 72.261H115.033C115.059 71.325 115.072 70.597 115.072 70.09H116.008C116.008 70.701 115.995 71.429 115.982 72.261H118.972V73.145H116.06C116.58 75.251 117.646 76.889 119.284 78.033L118.66 78.735C117.165 77.604 116.164 76.161 115.67 74.393C115.15 76.148 114.162 77.617 112.719 78.787L112.095 78.111C113.785 76.694 114.747 75.043 114.981 73.145H112.355V72.261ZM117.308 69.817C117.958 70.441 118.452 70.987 118.803 71.455L118.101 71.949C117.737 71.429 117.243 70.857 116.606 70.246L117.308 69.817ZM127.045 75.238V76.161C126.642 76.265 126.252 76.356 125.862 76.447V78.8H124.952V76.655C123.6 76.941 122.209 77.188 120.753 77.396L120.532 76.486C120.922 76.434 121.312 76.369 121.702 76.317V68.27H120.675V67.386H126.863V68.088H131.894V68.946C131.608 71.351 131.01 73.405 130.113 75.108C130.737 76.174 131.517 77.162 132.44 78.059L131.816 78.774C130.945 77.877 130.217 76.941 129.619 75.966C128.917 77.058 128.085 77.994 127.11 78.761L126.473 78.033C127.526 77.201 128.397 76.213 129.099 75.043C128.137 73.197 127.565 71.182 127.383 68.998H126.863V68.27H125.862V75.524C126.265 75.433 126.655 75.342 127.045 75.238ZM128.241 68.998C128.397 70.87 128.852 72.573 129.593 74.12C130.295 72.638 130.776 70.935 131.01 68.998H128.241ZM124.952 75.732V73.964H122.612V76.174C123.405 76.044 124.185 75.888 124.952 75.732ZM122.612 73.119H124.952V71.143H122.612V73.119ZM122.612 70.285H124.952V68.27H122.612V70.285ZM138.706 67.711H145.375V68.608H143.048V77.513C143.048 78.293 142.645 78.683 141.852 78.683H139.993L139.798 77.786C140.396 77.825 140.981 77.851 141.527 77.851C141.904 77.851 142.099 77.656 142.099 77.279V68.608H138.706V67.711ZM135.222 66.879L136.132 67.061C136.002 67.516 135.872 67.945 135.742 68.361H138.251V69.232H135.43C135.066 70.129 134.663 70.935 134.195 71.663L133.428 71.182C134.26 69.882 134.858 68.452 135.222 66.879ZM134.819 70.974H138.017V71.819H136.626V73.418H138.485V74.276H136.626V77.331C137.263 77.097 137.9 76.798 138.524 76.434L138.68 77.266C137.822 77.734 136.821 78.124 135.677 78.436L135.287 77.63C135.56 77.552 135.703 77.422 135.703 77.24V74.276H133.857V73.418H135.703V71.819H134.819V70.974ZM151.706 67.711H158.375V68.608H156.048V77.513C156.048 78.293 155.645 78.683 154.852 78.683H152.993L152.798 77.786C153.396 77.825 153.981 77.851 154.527 77.851C154.904 77.851 155.099 77.656 155.099 77.279V68.608H151.706V67.711ZM148.222 66.879L149.132 67.061C149.002 67.516 148.872 67.945 148.742 68.361H151.251V69.232H148.43C148.066 70.129 147.663 70.935 147.195 71.663L146.428 71.182C147.26 69.882 147.858 68.452 148.222 66.879ZM147.819 70.974H151.017V71.819H149.626V73.418H151.485V74.276H149.626V77.331C150.263 77.097 150.9 76.798 151.524 76.434L151.68 77.266C150.822 77.734 149.821 78.124 148.677 78.436L148.287 77.63C148.56 77.552 148.703 77.422 148.703 77.24V74.276H146.857V73.418H148.703V71.819H147.819V70.974ZM164.953 70.727H165.915V78.787H164.953V70.727ZM165.018 66.892H165.85C166.942 68.686 168.814 70.259 171.466 71.624L170.907 72.469C168.463 71.195 166.63 69.635 165.434 67.763C163.991 69.817 162.171 71.403 159.961 72.521L159.402 71.676C161.833 70.441 163.705 68.842 165.018 66.892ZM178.902 66.905C178.902 68.023 178.863 68.985 178.811 69.791C179.539 73.327 181.424 76.031 184.453 77.89L183.842 78.709C181.19 76.967 179.396 74.627 178.473 71.689C177.693 74.523 175.847 76.863 172.961 78.722L172.389 77.89C175.964 75.693 177.81 72.716 177.927 68.972C177.94 68.088 177.953 67.399 177.953 66.905H178.902ZM188.704 67.022H189.614V70.467H190.381V71.39H187.313V72.053C187.313 72.456 187.3 72.846 187.287 73.223H189.783V78.748H188.86V74.12H187.235C187.079 76.07 186.728 77.552 186.169 78.592L185.467 77.968C186.065 76.733 186.377 74.757 186.39 72.053V67.282H187.313V70.467H188.704V67.022ZM191.98 71.533V72.963C191.928 75.381 191.499 77.305 190.719 78.735L190.069 78.046C190.719 76.824 191.07 75.121 191.122 72.963V67.802C193.163 67.776 195.009 67.503 196.647 66.983L197.115 67.828C195.581 68.27 193.865 68.53 191.98 68.608V70.649H196.79V71.442C196.491 73.249 195.919 74.77 195.087 76.005C195.724 76.863 196.504 77.513 197.427 77.981L196.959 78.8C195.984 78.293 195.165 77.617 194.515 76.759C193.8 77.591 192.942 78.28 191.954 78.813L191.499 77.981C192.474 77.448 193.293 76.772 193.969 75.966C193.228 74.757 192.708 73.275 192.409 71.533H191.98ZM193.254 71.533C193.54 72.95 193.969 74.159 194.541 75.173C195.191 74.133 195.646 72.911 195.88 71.533H193.254ZM200.027 71.793C199.624 72.378 199.182 72.937 198.714 73.47L198.441 72.534C199.793 70.87 200.768 68.972 201.366 66.827L202.211 67.217C201.873 68.296 201.457 69.323 200.95 70.285V78.813H200.027V71.793ZM201.99 69.102H205.435V66.866H206.358V69.102H209.907V70.012H207.255C207.853 72.157 208.906 74.068 210.414 75.745L209.803 76.512C208.217 74.588 207.112 72.417 206.514 70.012H206.358V75.225H208.373V76.122H206.358V78.8H205.435V76.122H203.446V75.225H205.435V70.012H205.279C204.629 72.716 203.498 74.939 201.899 76.668L201.418 75.862C202.874 74.354 203.901 72.404 204.525 70.012H201.99V69.102ZM217.863 70.701C217.395 71.221 216.901 71.689 216.381 72.092L215.887 71.338C217.343 70.207 218.474 68.738 219.254 66.931H220.112C220.762 68.595 221.906 70.038 223.518 71.286L223.011 72.066C222.452 71.637 221.958 71.182 221.516 70.701V71.507H217.863V70.701ZM221.477 70.649C220.723 69.791 220.125 68.855 219.683 67.841C219.163 68.933 218.578 69.869 217.902 70.649H221.477ZM216.264 77.448H220.489C220.983 76.07 221.425 74.354 221.815 72.313L222.712 72.534C222.348 74.38 221.919 76.018 221.399 77.448H223.362V78.345H216.264V77.448ZM217.46 72.69C217.876 73.769 218.24 75.017 218.578 76.421L217.772 76.616C217.486 75.342 217.109 74.133 216.654 72.963L217.46 72.69ZM219.462 72.313C219.813 73.34 220.125 74.523 220.411 75.862L219.592 76.057C219.358 74.848 219.046 73.678 218.656 72.56L219.462 72.313ZM214.808 68.335H211.662V67.477H215.744L215.12 72.833H215.926C215.926 75.797 215.796 77.5 215.549 77.955C215.289 78.397 214.756 78.631 213.937 78.631C213.638 78.631 213.326 78.618 213.014 78.592L212.767 77.76C213.222 77.812 213.547 77.838 213.729 77.838C214.353 77.838 214.73 77.63 214.86 77.24C214.99 76.824 215.068 75.641 215.068 73.665H211.753L212.364 69.206L213.222 69.258L212.702 72.833H214.236L214.808 68.335ZM214.327 74.822V75.667C213.469 75.992 212.507 76.252 211.428 76.46L211.311 75.576C212.455 75.381 213.469 75.134 214.327 74.822ZM225.468 67.152C226.248 67.399 226.976 67.698 227.626 68.062L227.132 68.816C226.43 68.4 225.728 68.088 225.013 67.854L225.468 67.152ZM229.654 66.84L230.577 66.957C230.473 67.243 230.369 67.529 230.239 67.789H235.478V68.348C235.322 68.985 235.114 69.622 234.854 70.246L233.957 69.973C234.178 69.57 234.36 69.115 234.516 68.608H232.306C232.254 68.92 232.176 69.206 232.072 69.466C232.748 70.467 234.087 71.156 236.089 71.533L235.751 72.365C233.853 71.975 232.501 71.273 231.695 70.233C231.539 70.467 231.37 70.688 231.175 70.896C230.538 71.494 229.498 71.975 228.042 72.313L227.691 71.481C228.965 71.208 229.888 70.831 230.46 70.337C230.928 69.908 231.253 69.336 231.409 68.608H229.745C229.381 69.076 228.952 69.505 228.458 69.895L227.912 69.167C228.77 68.543 229.342 67.763 229.654 66.84ZM234.594 72.664V76.525H233.658V73.535H227.171V76.629H226.235V72.664H234.594ZM230.044 74.029L230.98 74.107C230.798 75.758 230.408 76.863 229.797 77.435C229.121 78.137 227.613 78.592 225.273 78.774L224.909 77.942C226.976 77.825 228.341 77.474 229.004 76.876C229.589 76.317 229.94 75.368 230.044 74.029ZM227.275 69.596L227.821 70.233C227.171 70.909 226.365 71.546 225.403 72.144L224.779 71.416C225.767 70.857 226.599 70.246 227.275 69.596ZM231.279 76.486C232.969 76.928 234.503 77.461 235.894 78.085L235.387 78.865C233.905 78.163 232.371 77.604 230.798 77.201L231.279 76.486ZM240.314 72.079V78.748H239.391V72.222C238.988 73.457 238.455 74.588 237.805 75.602L237.402 74.588C238.312 73.34 238.975 71.923 239.378 70.324H237.662V69.427H239.391V66.892H240.314V69.427H241.731V70.324H240.314V71.026C240.86 71.65 241.419 72.339 241.978 73.106L241.965 73.119C243.109 72.651 244.11 72.118 244.942 71.507C244.383 70.974 243.915 70.428 243.551 69.856C243.213 70.298 242.849 70.714 242.472 71.091L241.874 70.376C242.823 69.479 243.59 68.309 244.188 66.866L245.085 67.061C244.955 67.399 244.812 67.724 244.656 68.036H248.322V68.764C247.854 69.804 247.165 70.727 246.281 71.546C247.152 72.157 248.205 72.69 249.427 73.145L249.011 74.016C247.659 73.444 246.541 72.807 245.631 72.092C244.643 72.859 243.434 73.509 242.017 74.055L241.666 73.587L241.471 73.886C241.016 73.132 240.626 72.534 240.314 72.079ZM248.296 73.925V78.774H247.386V78.202H243.707V78.774H242.797V73.925H248.296ZM243.707 77.331H247.386V74.796H243.707V77.331ZM245.579 71C246.294 70.376 246.866 69.687 247.295 68.933H244.162C244.11 69.011 244.071 69.102 244.019 69.18C244.422 69.843 244.942 70.454 245.579 71Z" fill="#171A1D"/>
<mask id="path-4-inside-1_4_54" fill="white">
<path d="M137.495 98H153.495V126H137.495V98Z"/>
</mask>
<path d="M137.495 98V84H129.495V98H137.495ZM153.495 98H161.495V84H153.495V98ZM153.495 126V140H161.495V126H153.495ZM137.495 126H129.495V140H137.495V126ZM137.495 112H153.495V84H137.495V112ZM145.495 98V126H161.495V98H145.495ZM153.495 112H137.495V140H153.495V112ZM145.495 126V98H129.495V126H145.495Z" fill="white" mask="url(#path-4-inside-1_4_54)"/>
</g>
<rect x="55.495" y="126" width="180" height="50" rx="8" fill="url(#paint0_linear_4_54)"/>
<path d="M110.585 143.248H126.587V144.526H118.775V147.244C121.007 148.36 123.275 149.656 125.579 151.132L124.805 152.284C122.411 150.7 120.395 149.476 118.775 148.612V158.836H117.461V144.526H110.585V143.248ZM129.611 143.752H133.121V142.24H134.381V143.752H137.639V144.94H134.381V146.596H138.701C138.629 145.246 138.593 143.788 138.593 142.204H139.853C139.853 143.842 139.889 145.3 139.961 146.596H144.497V147.766H140.033C140.141 149.368 140.285 150.682 140.483 151.69C140.591 152.212 140.699 152.698 140.807 153.166C141.455 151.87 141.977 150.358 142.373 148.666L143.525 149.188C142.949 151.438 142.211 153.328 141.311 154.84C141.455 155.254 141.617 155.614 141.779 155.938C142.247 156.82 142.625 157.27 142.913 157.27C143.201 157.252 143.453 156.298 143.669 154.39L144.785 154.984C144.389 157.378 143.831 158.584 143.075 158.584C142.463 158.584 141.797 158.026 141.095 156.946C140.897 156.64 140.717 156.316 140.573 155.974C139.637 157.198 138.575 158.116 137.387 158.764L136.685 157.72C137.981 157 139.097 155.956 140.015 154.57C139.763 153.778 139.529 152.914 139.331 151.96C139.079 150.772 138.881 149.386 138.773 147.766H128.675V146.596H133.121V144.94H129.611V143.752ZM141.707 142.438C142.607 143.446 143.309 144.328 143.795 145.084L142.823 145.768C142.319 144.958 141.617 144.058 140.717 143.068L141.707 142.438ZM137.639 155.128V156.28C136.739 156.388 135.803 156.514 134.831 156.622V158.746H133.553V156.748C132.257 156.874 130.889 156.982 129.449 157.09L129.287 155.884C130.799 155.794 132.221 155.686 133.553 155.578V153.976H130.043L129.791 152.914C130.295 152.302 130.763 151.564 131.195 150.664H129.215V149.512H131.699C131.879 149.08 132.041 148.612 132.203 148.144L133.445 148.378C133.301 148.774 133.157 149.152 133.013 149.512H137.729V150.664H132.509C132.113 151.492 131.681 152.23 131.231 152.878H133.553V151.474H134.831V152.878H137.567V153.976H134.831V155.452C135.821 155.344 136.757 155.236 137.639 155.128ZM148.493 149.098C147.935 149.908 147.323 150.682 146.675 151.42L146.297 150.124C148.169 147.82 149.519 145.192 150.347 142.222L151.517 142.762C151.049 144.256 150.473 145.678 149.771 147.01V158.818H148.493V149.098ZM151.211 145.372H155.981V142.276H157.259V145.372H162.173V146.632H158.501C159.329 149.602 160.787 152.248 162.875 154.57L162.029 155.632C159.833 152.968 158.303 149.962 157.475 146.632H157.259V153.85H160.049V155.092H157.259V158.8H155.981V155.092H153.227V153.85H155.981V146.632H155.765C154.865 150.376 153.299 153.454 151.085 155.848L150.419 154.732C152.435 152.644 153.857 149.944 154.721 146.632H151.211V145.372ZM173.189 147.586C172.541 148.306 171.857 148.954 171.137 149.512L170.453 148.468C172.469 146.902 174.035 144.868 175.115 142.366H176.303C177.203 144.67 178.787 146.668 181.019 148.396L180.317 149.476C179.543 148.882 178.859 148.252 178.247 147.586V148.702H173.189V147.586ZM178.193 147.514C177.149 146.326 176.321 145.03 175.709 143.626C174.989 145.138 174.179 146.434 173.243 147.514H178.193ZM170.975 156.928H176.825C177.509 155.02 178.121 152.644 178.661 149.818L179.903 150.124C179.399 152.68 178.805 154.948 178.085 156.928H180.803V158.17H170.975V156.928ZM172.631 150.34C173.207 151.834 173.711 153.562 174.179 155.506L173.063 155.776C172.667 154.012 172.145 152.338 171.515 150.718L172.631 150.34ZM175.403 149.818C175.889 151.24 176.321 152.878 176.717 154.732L175.583 155.002C175.259 153.328 174.827 151.708 174.287 150.16L175.403 149.818ZM168.959 144.31H164.603V143.122H170.255L169.391 150.538H170.507C170.507 154.642 170.327 157 169.985 157.63C169.625 158.242 168.887 158.566 167.753 158.566C167.339 158.566 166.907 158.548 166.475 158.512L166.133 157.36C166.763 157.432 167.213 157.468 167.465 157.468C168.329 157.468 168.851 157.18 169.031 156.64C169.211 156.064 169.319 154.426 169.319 151.69H164.729L165.575 145.516L166.763 145.588L166.043 150.538H168.167L168.959 144.31ZM168.293 153.292V154.462C167.105 154.912 165.773 155.272 164.279 155.56L164.117 154.336C165.701 154.066 167.105 153.724 168.293 153.292Z" fill="white"/>
<defs>
<filter id="filter0_d_4_54" x="0.60498" y="42" width="289.79" height="94" filterUnits="userSpaceOnUse" color-interpolation-filters="sRGB">
<feFlood flood-opacity="0" result="BackgroundImageFix"/>
<feColorMatrix in="SourceAlpha" type="matrix" values="0 0 0 0 0 0 0 0 0 0 0 0 0 0 0 0 0 0 127 0" result="hardAlpha"/>
<feOffset dy="2"/>
<feGaussianBlur stdDeviation="4"/>
<feComposite in2="hardAlpha" operator="out"/>
<feColorMatrix type="matrix" values="0 0 0 0 0 0 0 0 0 0 0 0 0 0 0 0 0 0 0.08 0"/>
<feBlend mode="normal" in2="BackgroundImageFix" result="effect1_dropShadow_4_54"/>
<feBlend mode="normal" in="SourceGraphic" in2="effect1_dropShadow_4_54" result="shape"/>
</filter>
<linearGradient id="paint0_linear_4_54" x1="54.5696" y1="130.008" x2="236.42" y2="171.992" gradientUnits="userSpaceOnUse">
<stop offset="0.05" stop-color="#8F70FF"/>
<stop offset="0.97" stop-color="#FF5E2B"/>
</linearGradient>
</defs>
</svg>
